/* XPM */
static char *enemy_idle_3[] = {
/* columns rows colors chars-per-pixel */
"64 64 11 1 ",
"  c #FF00FF",
". c #8B4513",
"+ c #A0522D",
"@ c #654321",
"# c #FFFFFF",
"$ c #000000",
"% c #FF0000",
"& c #FFD700",
"* c #4169E1",
"= c #2F4F2F",
"1 c #CD853F",
/* pixels */
"                           .....                                ",
"                          .+++++.                               ",
"                         .+++++++.                              ",
"                        .+++++++++.                             ",
"                       .+++++++++++.                            ",
"                       .+++++++++++.                            ",
"                       .+++++++++++.                            ",
"                  $$$$$$$$$$$$$$$$$$$$$$$                       ",
"                 $######################$                       ",
"                $##$$$$$$$$$$$$$$$$$$##$                        ",
"               $##$%%%%%%%%%%%%%%%$$$##$                        ",
"              $##$%%%&&&&&&&&&&%%%$$##$                         ",
"             $##$%%&&&&*****&&&&%%$$##$                         ",
"            $##$%%&&**#######**&&%%$$##$                        ",
"            $##$%&&**###$$$###**&&%$$##$                        ",
"           $##$%%&**##$$$$$$$##**&%%$$##$                       ",
"           $##$%&&*##$$$%%%$$$##*&&%$$##$                       ",
"          $##$%%&**#$$%%%1%%%$$#**&%%$$##$                      ",
"          $##$%&&*##$$1%%1%%1$$##*&&%$$##$                      ",
"          $##$%&&**#$$1%%1%%1$$#**&&%$$##$                      ",
"         $##$%%&&*##$1$%%1%%$1$##*&&%%$$##$                     ",
"         $##$%%&&**##11$%1%$11##**&&%%$$##$                     ",
"         $##$%%&&**##11$111$11##**&&%%$$##$                     ",
"         $##$%%&&**##$11111111$##**&&%%$$##$                    ",
"         $##$%%&&**##$$$1%1$$$##**&&%%$$##$                     ",
"         $##$%%&&**##$$$111$$$##**&&%%$$##$                     ",
"         $##$%%&&**##$$$111$$$##**&&%%$$##$                     ",
"         $##$%%&&**##$$$111$$$##**&&%%$$##$                     ",
"         $##$%%&&**##$$$1%1$$$##**&&%%$$##$                     ",
"         $##$%%&&**##$$$%%%$$$##**&&%%$$##$                     ",
"         $##$%%&&*##$$$%%%%%$$$##*&&%%$$##$                     ",
"          $##$%&&*##$$%%%%%%%$$##*&&%$$##$                      ",
"          $##$%&&**#$$%%%%%%%$$#**&&%$$##$                      ",
"          $##$%%&**#$$%%%%%%%$$#**&%%$$##$                      ",
"           $##$%&&*##$$$%%%$$$##*&&%$$##$                       ",
"           $##$%%&**##$$$$$$$##**&%%$$##$                       ",
"            $##$%&&**###$$$###**&&%$$##$                        ",
"            $##$%%&&**#######**&&%%$$##$                        ",
"             $##$%%&&*****&&&&&%%$$##$                          ",
"              $##$%%&&&&&&&&&&&%%$$##$                          ",
"               $##$%%%%%%%%%%%%%%%$$##$                         ",
"                $##$$$$$$$$$$$$$$$$##$                          ",
"                 $######################$                       ",
"                  $$$$$$$$$$$$$$$$$$$$$$$                       ",
"                       .+++++++++++.                            ",
"                       .+++++++++++.                            ",
"                       .+++++++++++.                            ",
"                       ++++++++++++.                            ",
"                      .+++++++++++++                            ",
"                      .++++++++++++.                            ",
"                      .+++++++++++.                             ",
"                      .++++++++++.                              ",
"                      .+++++++++.                               ",
"                      .++++++++.                                ",
"                      ..+++++++.                                ",
"                       .+++++++.                                ",
"                       ..+++++..                                ",
"                        .+++++.                                 ",
"                        .+++++.                                 ",
"                        .+++++.                                 ",
"                        .+++++.                                 ",
"                        .=====.                                 ",
"                        =======                                 ",
"                        =======                                 ",
"                                                                "
};