/* XPM */
static char *enemy_idle_3[] = {
/* columns rows colors chars-per-pixel */
"64 64 12 1 ",
"  c None",
". c #1a1a1a",
"+ c #2d2d2d",
"@ c #404040",
"# c #595959",
"$ c #737373",
"% c #8c8c8c",
"& c #a6a6a6",
"* c #bfbfbf",
"= c #d9d9d9",
"- c #8b0000",
"; c #ff0000",
/* pixels */
"                                                                ",
"                                                                ",
"                                                                ",
"                                                                ",
"                        @@@@@@@@@@@@                            ",
"                      @@############@@                          ",
"                    @@##$$$$$$$$$$##@@                          ",
"                   @@##$$%%%%%%%%$$##@@                         ",
"                  @@##$$%%&&&&&&%%$$##@@                        ",
"                  @##$$%%&&****&&%%$$##@                        ",
"                  @##$$%%&&*==*&&%%$$##@                        ",
"                  @##$$%%&&*;;*&&%%$$##@                        ",
"                  @##$$%%&&*;;*&&%%$$##@                        ",
"                  @##$$%%&&*==*&&%%$$##@                        ",
"                  @##$$%%&&****&&%%$$##@                        ",
"                  @##$$%%&&&&&&&&%%$$##@                        ",
"                  @@##$$%%%%%%%%$$##@@                          ",
"                   @@##$$$$$$$$$$##@@                           ",
"                    @@############@@                            ",
"                   ..@@@@@@@@@@@@@@..                           ",
"                  ..++++++++++++++++++..                        ",
"                 ..++@@@@@@@@@@@@@@@@++..                       ",
"                ..++@@##############@@++..                      ",
"               ..++@@##$$$$$$$$$$$$##@@++..                     ",
"              ..++@@##$$%%%%%%%%%%$$##@@++..                    ",
"             ..++@@##$$%%&&&&&&&&%%$$##@@++..                   ",
"             ..+@@##$$%%&********&%%$$##@@+..                   ",
"             ..+@@##$$%&*========*&%$$##@@+..                   ",
"             ..+@@##$$%&*========*&%$$##@@+..                   ",
"             ..+@@##$$%&*========*&%$$##@@+..                   ",
"             ..+@@##$$%&*========*&%$$##@@+..                   ",
"             ..+@@##$$%%&********&%%$$##@@+..                   ",
"             ..++@@##$$%%&&&&&&&&%%$$##@@++..   &&&             ",
"              ..++@@##$$%%%%%%%%%%$$##@@++..   &===&            ",
"              ..++@@##$$$$$$$$$$$$##@@++..    &=====&           ",
"              ..++@@################@@++..   &=======&          ",
"              ..++@@@@@@@@@@@@@@@@@@@@++..  &=========&         ",
"              ..++++++++++++++++++++++++.. &===========&        ",
"              ............................&=============&       ",
"              ............................&=============&       ",
"              ..--;;;;;;;;;;;;;;;;;;;;--..&=============&       ",
"              ..--;;;;;;--;;;;--;;;;;;--.. &===========&        ",
"              ..--;;;;;;;;;;;;;;;;;;;;--..  &=========&         ",
"              ............................   &=======&          ",
"              ....@@@@@@@@@@@@@@@@@@@@....    &=====&           ",
"              ..@@##################@@....     &===&            ",
"              ..@@##$$$$$$$$$$$$$$##@@....      &&&             ",
"              ..@@##$$%%%%%%%%%%$$##@@....                      ",
"              ..@@##$$%%&&&&&&%%$$##@@....                      ",
"              ..@@##$$%%&&&&&&%%$$##@@....                      ",
"              ..@@##$$%%%%%%%%%%$$##@@....                      ",
"              ..@@##$$$$$$$$$$$$$$##@@....                      ",
"              ..@@##################@@....                      ",
"              ....@@@@@@@@@@@@@@@@@@......                      ",
"              ......++++++..++++++........                      ",
"              ......++++++..++++++........                      ",
"              ......++++++..++++++........                      ",
"              ......++++++..++++++........                      ",
"                                                                ",
"                                                                ",
"                                                                ",
"                                                                ",
"                                                                ",
"                                                                "
};